---
title: OLIDS Scheduling and Workforce
---
erDiagram
    ORGANISATION ||--o{ PRACTITIONER : publisher_author_refs
    PRACTITIONER ||--o{ PRACTITIONER_IN_ROLE : PRACTITIONER_ID
    ORGANISATION ||--o{ PRACTITIONER_IN_ROLE : publisher_author_employer_refs

    ORGANISATION ||--o{ LOCATION : MANAGING_ORGANISATION_ID
    LOCATION ||--o{ SCHEDULE : LOCATION_ID
    PRACTITIONER ||--o{ SCHEDULE : PRACTITIONER_ID
    ORGANISATION ||--o{ SCHEDULE : publisher_provider_author_refs

    SCHEDULE ||--o{ SCHEDULE_PRACTITIONER : SCHEDULE_ID
    PRACTITIONER ||--o{ SCHEDULE_PRACTITIONER : PRACTITIONER_ID
    ORGANISATION ||--o{ SCHEDULE_PRACTITIONER : publisher_provider_author_refs

    PATIENT ||--o{ APPOINTMENT : PATIENT_ID
    PERSON ||--o{ APPOINTMENT : PERSON_ID
    PRACTITIONER_IN_ROLE ||--o{ APPOINTMENT : PRACTITIONER_IN_ROLE_ID
    SCHEDULE ||--o{ APPOINTMENT : SCHEDULE_ID
    ORGANISATION ||--o{ APPOINTMENT : publisher_provider_author_refs

    APPOINTMENT ||--o{ APPOINTMENT_PRACTITIONER : APPOINTMENT_ID
    PATIENT ||--o{ APPOINTMENT_PRACTITIONER : PATIENT_ID
    PERSON ||--o{ APPOINTMENT_PRACTITIONER : PERSON_ID
    PRACTITIONER ||--o{ APPOINTMENT_PRACTITIONER : PRACTITIONER_ID
    ORGANISATION ||--o{ APPOINTMENT_PRACTITIONER : publisher_provider_author_refs